<svg xmlns="http://www.w3.org/2000/svg" width="600" height="600" viewBox="0 0 600 600">
  <defs>
    <linearGradient id="g" x1="0" y1="0" x2="1" y2="1">
      <stop offset="0%" stop-color="#0c4a6e"/>
      <stop offset="100%" stop-color="#38bdf8"/>
    </linearGradient>
  </defs>
  <rect width="600" height="600" fill="url(#g)"/>
  <circle cx="300" cy="250" r="120" fill="rgba(255,255,255,0.15)"/>
  <path d="M9 2h6v3c2 1 3 3 3 5v9a3 3 0 0 1-3 3H9a3 3 0 0 1-3-3v-9c0-2 1-4 3-5V2Zm2 2v2.5h2L13 4h-2Zm2 3.5H11l-1 2h4l-1-2Zm2 4H9l1 6h4l1-6Z" transform="translate(230 140) scale(3.4)" fill="#ffffff" fill-opacity="0.92" stroke="none"/>
  <text x="300" y="470" font-family="system-ui, sans-serif" font-size="34" font-weight="600" fill="#ffffff" text-anchor="middle" opacity="0.95">Insulated Bottle</text>
</svg>